<?xml version="1.0"?>
<svg width="1109.79" height="748.34" xmlns="http://www.w3.org/2000/svg" xmlns:svg="http://www.w3.org/2000/svg" xmlns:se="http://svg-edit.googlecode.com" data-name="Layer 1">

 <title>working late</title>
 <g class="layer">
  <title>Layer 1</title>
  <rect height="19.3" id="svg_31" opacity="0.4" width="28.6" x="659.88" y="573.03"/>
  <rect height="19.3" id="svg_32" opacity="0.4" width="28.6" x="737.09" y="573.03"/>
  <rect height="17.25" id="svg_52" opacity="0.4" width="142.98" x="408.96" y="446.45"/>
  <rect height="17.25" id="svg_53" opacity="0.4" width="142.98" x="408.96" y="501.49"/>
  <path d="m481.63,666.07s-20,-4.65 -29.31,-8.94s-61.48,-12.51 -72.92,12.16s15.73,57.54 22.52,61.12s72.92,-45.41 72.92,-45.41l52.16,22l10,-34.14l-55.37,-6.79z" fill="#65617d" id="svg_67" transform="translate(-45.11 -75.83)"/>
  <rect fill="#65617d" height="78.99" id="svg_68" rx="36.83" ry="36.83" width="227.07" x="458.59" y="597.03"/>
  <path d="m730.77,712.35a39.41,39.41 0 0 1 -6.58,21.84a40,40 0 0 1 -5,6.1a39.37,39.37 0 0 1 -27.93,11.57l-148.06,0a39.5,39.5 0 0 1 0,-79l148.07,0a39.5,39.5 0 0 1 39.5,39.49z" id="svg_69" opacity="0.1" transform="translate(-45.11 -75.83)"/>
  <path d="m607.14,714.66s-22.77,5.85 -41.35,5.59s-105.49,35.85 -105.49,35.85s-12.51,28.52 7.9,26.16s30.35,-12.26 44.74,-12.26s59.66,-5 59.66,-5l43.56,-32.18l-9.02,-18.16z" fill="#FFDD0C" id="svg_70" transform="translate(-45.11 -75.83)"/>
  <path d="m621.39,445.53l-40.84,8.05l-2.65,0.53s-32.29,-8.58 -33.36,-9.3s-30.38,-40.21 -30.38,-40.21s14.82,0.16 26.46,-6.55c0.42,-0.24 0.83,-0.5 1.24,-0.75a25.8,25.8 0 0 0 11,-13.49c0.21,-0.59 0.39,-1.2 0.56,-1.84c1.24,-4.78 1.32,-10.57 -0.34,-17.58c-4,-16.67 5.2,-21.26 17.39,-20.86c17.61,0.58 41.58,11.57 41.58,11.57a48.87,48.87 0 0 0 3.77,16.3c0.19,0.48 0.4,1 0.62,1.46a46.54,46.54 0 0 0 21.69,22.75l1.29,0.64c1.3,0.62 2.67,1.21 4.09,1.74c31.14,11.8 -22.12,47.54 -22.12,47.54z" fill="#FFDD0C" id="svg_71" transform="translate(-45.11 -75.83)"/>
  <path d="m616.48,372.86a51.51,51.51 0 0 1 -63.58,10.95c1.76,-5.12 2.09,-11.49 0.22,-19.42c-9.65,-40.75 59,-9.29 59,-9.29a49.53,49.53 0 0 0 4.36,17.76z" id="svg_72" opacity="0.1" transform="translate(-45.11 -75.83)"/>
  <path d="m584.259999,260.829998a51.12,51.12 0 0 1 -7.8,27.23a50.39,50.39 0 0 1 -5.71,7.51a51.18,51.18 0 0 1 -34.86,16.6c-1,0.07 -2.07,0.1 -3.11,0.1a51.47,51.47 0 1 1 51.47,-51.47l0.01,0.03z" fill="#FFDD0C" id="svg_73"/>
  <path d="m621.39,445.53l-40.84,8.05l-2.65,0.53s-32.29,-8.58 -33.36,-9.3s-30.38,-40.21 -30.38,-40.21s14.82,0.16 26.46,-6.55c0.42,-0.24 0.83,-0.5 1.24,-0.75c3.7,4 15.81,15.31 34.84,15.23a50.33,50.33 0 0 0 7.3,-0.53c5.74,-0.88 11.53,-1.45 17.31,-2c11.07,-1.16 28,-4.52 36.89,-14.3l1.29,0.64c1.3,0.62 2.67,1.21 4.09,1.74c31.07,11.71 -22.19,47.45 -22.19,47.45z" id="svg_74" opacity="0.1" transform="translate(-45.11 -75.83)"/>
  <path d="m622.389999,474.069998c0.35,7.87 6.08,96.51 6.08,96.51l-178.37,0l1.21,-55.81l1,-44.64l0.32,-14.65l1.43,-50.75l-5.17,-4.56l-28.1,-24.76l0,0c0.21,-0.66 7.83,-23.25 6.77,-26.43s13.59,-16.08 18.6,-16.8a65.12,65.12 0 0 0 8.38,-2.55c8.43,-3 19.68,-7.32 20.92,-6.64c1.75,0.94 19.29,-0.69 20,-0.76l0,0s12.94,16.73 36.06,16.63a49,49 0 0 0 7.27,-0.58c5.74,-0.88 11.53,-1.45 17.31,-2.05c11.63,-1.21 29.71,-4.86 38.18,-15.8c0,0 4.09,0.17 11.95,2.56s17.52,2.4 17.52,2.4a88.91,88.91 0 0 1 13.58,5a95,95 0 0 0 12.87,5s8.22,2.14 10.37,22.87s4.32,32.53 4.32,32.53l-42.5,36.81s-0.35,38.57 0,46.47z" fill="#6c63ff" id="svg_75"/>
  <polygon fill="#FFDD0C" id="svg_76" points="420.8 535.91 427.05 545.92 450.46 554.17 466.55 524.83 451.72 514.82 427.95 505.53 414.37 513.39 420.8 535.91"/>
  <path d="m665.71,661.06s33.24,-2.5 46.83,-17.87s47.89,-23.59 47.89,-23.59s82.57,-9.65 50,63.27c0,0 -2.14,8.22 -6.43,10.72s-14.65,8.94 -14.65,8.94l-126.83,-11.08l3.19,-30.39z" fill="#65617d" id="svg_77" transform="translate(-45.11 -75.83)"/>
  <path d="m730.77,712.35a39.41,39.41 0 0 1 -6.58,21.84c-21.34,1.89 -68.6,6.33 -78.49,9.09c-12.15,3.37 -36.74,-2.5 -39.43,-3.16l-0.25,-0.06s-4.74,-14.38 -7,-23.58c-1,-4.18 -1.53,-7.29 -0.87,-7.52c2.15,-0.71 21.81,-6.08 21.45,-3s59,-23.06 59,-23.06l1.82,22.88c6.03,6.9 50.35,-3.36 50.35,6.57z" id="svg_78" opacity="0.1" transform="translate(-45.11 -75.83)"/>
  <path d="m791.89,693.23l-2.5,9.3a74.09,74.09 0 0 1 -20,15.72c-11.8,6.08 -32.53,16.09 -32.53,16.09s-76.13,6.43 -89,10s-39.68,-3.22 -39.68,-3.22s-10,-30.38 -7.86,-31.1s21.8,-6.07 21.45,-3s59,-23.06 59,-23.06l111.12,9.27z" fill="#65617d" id="svg_79" transform="translate(-45.11 -75.83)"/>
  <path d="m579.92,773.37s37.42,2.61 46.32,6s72.48,-1.3 72.48,-1.3s41.08,0.8 52.85,4.32s7.59,-36 -14.13,-40.43s-52.33,2.09 -52.33,2.09s-34.54,-4.45 -38.73,-5s-31.78,0.25 -31.78,0.25l-34.68,34.07z" fill="#FFDD0C" id="svg_80" transform="translate(-45.11 -75.83)"/>
  <path d="m432.87,674.72s49.46,4.45 63.06,12.56l-63.06,-12.56z" id="svg_81" opacity="0.1" transform="translate(-45.11 -75.83)"/>
  <path d="m741.37,642.28s-38.73,9.42 -53.91,23.28l53.91,-23.28z" id="svg_82" opacity="0.1" transform="translate(-45.11 -75.83)"/>
  <path d="m435.75,663.47c0.79,0.26 22.77,3.14 22.24,5.23s-22.24,-5.23 -22.24,-5.23z" id="svg_83" opacity="0.1" transform="translate(-45.11 -75.83)"/>
  <path d="m401.21,718.61l2.86,10.73s6.43,5 7.86,7.5s9.65,3.22 9.65,3.22s8.58,3.93 10.73,6.07s25.37,8.94 47.18,11.8s62.19,8.22 70.77,11.08a103,103 0 0 0 18.59,3.93s16.08,8.58 24.66,6.44s23.23,-41.11 23.23,-41.11s-56.47,-13.22 -58.26,-17.51s-56.12,-24.3 -56.12,-24.3l-32.17,0.76l-68.98,21.39z" id="svg_84" opacity="0.1" transform="translate(-45.11 -75.83)"/>
  <path d="m399.06,719.68l2.86,10.73s6.44,5 7.87,7.5s9.65,3.22 9.65,3.22s8.58,3.93 10.72,6.08s25.38,8.93 47.18,11.79s62.2,8.22 70.78,11.08a103.32,103.32 0 0 0 18.58,3.92s16.09,8.57 24.67,6.43s23.23,-41.11 23.23,-41.11s-56.48,-13.22 -58.26,-17.51s-81.5,-36.81 -81.5,-36.81l-25,-5.72l-50.78,40.4z" fill="#65617d" id="svg_85" transform="translate(-45.11 -75.83)"/>
  <path d="m472.15,447.67l-6.25,3.58l-12,82.21s-6.37,6.08 -4.38,10s-0.39,10.72 -0.39,10.72s-10.76,4.65 -8.37,7.51s1.3,8.22 -0.34,11.79s-4.33,10 0,11.08s0.74,15 0.74,15s15.09,-1.72 14,7.14c-0.45,3.58 17.06,15 17.06,15s-19.9,-36.1 24.68,-31.1l3.83,-20.35s3.83,-11.46 0,-15s0.86,-20.55 0.86,-20.55l0.84,-73.81l-30.28,-13.22z" fill="#6c63ff" id="svg_86" transform="translate(-45.11 -75.83)"/>
  <path d="m462.44,553.84c0.79,1.31 24.86,4 26.43,8.27s-26.43,-8.27 -26.43,-8.27z" id="svg_87" opacity="0.1" transform="translate(-45.11 -75.83)"/>
  <path d="m454.85,574.25s3.27,-10.21 11,-8.38s-11,8.38 -11,8.38z" id="svg_88" opacity="0.1" transform="translate(-45.11 -75.83)"/>
  <path d="m450.67,589.16s5.75,-13.61 13.6,-12.56s-13.6,12.56 -13.6,12.56z" id="svg_89" opacity="0.1" transform="translate(-45.11 -75.83)"/>
  <path d="m712.54,588.86l-2.51,15s-25.73,47.19 -30.38,47.9s-30,-31.45 -30,-31.45l-6.79,-31.46l26.73,-5.07l11.87,-11.73s30,2.87 31.08,16.81z" fill="#FFDD0C" id="svg_90" transform="translate(-45.11 -75.83)"/>
  <path d="m655.269999,383.999998l9.65,6.79l0,36.1s7.51,-0.72 5.72,3.22s-5.36,6.07 -2.14,9.65s2.5,10.36 -0.36,11.08s-7.86,3.57 -3.22,5.36s7.51,5 7.51,7.15s0.36,5.36 -1.43,7.86s-3.57,8.22 -1.43,10.37s-1.79,13.22 -1.79,13.22s6.8,17.52 0.36,22.52c0,0 -2.86,10 -3.22,10.72c0,0 4.51,-34.79 -40.46,-20.08c0,0 -0.83,-13.26 -1.14,-18.17s3.88,-6.35 1.57,-9.28s-8.09,-9.66 -5.36,-11.44s1.79,-5 0.71,-7.51s-4.85,-2.5 -1.43,-5.54s5.45,-5.89 3.44,-7.32s-5.5,-6.09 -2.72,-8.23s2.86,-33.24 2.86,-33.24s11.44,-45.75 32.88,-23.23z" fill="#6c63ff" id="svg_91"/>
  <path d="m650.729999,445.499998s13.74,-3.73 14.19,0s-14.19,0 -14.19,0z" id="svg_92" opacity="0.1"/>
  <path d="m635.289999,455.769998s18.84,-4.71 21.19,-1.05s-21.19,1.05 -21.19,1.05z" id="svg_93" opacity="0.1"/>
  <path d="m676.21,541.54s28.26,-3.93 30.09,1.83s-30.09,-1.83 -30.09,-1.83z" id="svg_94" opacity="0.1" transform="translate(-45.11 -75.83)"/>
  <path d="m680.4,553.84c1.05,0.26 27.21,2.09 27.73,7.06s-27.73,-7.06 -27.73,-7.06z" id="svg_95" opacity="0.1" transform="translate(-45.11 -75.83)"/>
  <rect fill="#3f3d56" height="127.27" id="svg_96" rx="10.47" ry="10.47" width="224.08" x="425.09" y="494.12"/>
  <circle cx="537.13" cy="557.76" fill="#e7effd" id="svg_97" r="8.26"/>
  <path d="m507.72,491.94s21.48,16.42 38.09,3.91c0,0 -28.08,2.55 -38.09,-3.91z" id="svg_98" opacity="0.1" transform="translate(-45.11 -75.83)"/>
  <path d="m616.48,496.36s21.47,16.41 38.08,3.9c0,0 -28.07,2.56 -38.08,-3.9z" id="svg_99" opacity="0.1" transform="translate(-45.11 -75.83)"/>
  <path d="m584.259999,260.829998a51.12,51.12 0 0 1 -7.8,27.23c-0.43,-14.33 -3.8,-28.67 -11.6,-40.64c-7.14,-11 -28.85,-30.19 -43.77,-24.84a10.57,10.57 0 0 0 -6.52,7c-1.48,5.62 2.85,8 5.63,12.43a38.11,38.11 0 0 1 5.2,25.68a35.72,35.72 0 0 1 -0.75,3.56c-2.35,8.82 -7.73,18.91 -2.18,26.14c3.87,5 12.19,6.78 13.32,13a7.59,7.59 0 0 1 0.1,1.78c-0.26,4.21 -3.85,7.92 -5.42,12.05c-1.84,4.87 -0.8,9.71 1.11,14.6c2.48,6.38 6.44,12.83 7.4,19.57s-1.11,13 -3.55,19.33c-2.31,6 -5,11.95 -5.9,18.2c-1.73,11.88 2.63,25.62 -4.85,35a5.24,5.24 0 0 1 -3.27,2.21c-4.79,0.5 -4,-8.11 -7.83,-11c0.41,5 0.8,10.22 -1,14.9s-6.54,8.66 -11.5,7.87l-1.71,-11.23a32.43,32.43 0 0 1 -11.9,7.45a86.74,86.74 0 0 1 12.42,-33.6c-12.59,6.06 -19.93,19.18 -26.48,31.52c-4.08,7.71 -8.31,16.13 -6.88,24.74c0.58,3.51 2.09,6.85 2.42,10.38s-0.95,7.66 -4.24,9c-2.87,1.17 -6.22,-0.23 -8.29,-2.57l-0.36,-0.43c-0.2,-0.26 -0.39,-0.53 -0.57,-0.8a13.43,13.43 0 0 1 -0.95,-1.7a32.89,32.89 0 0 1 -2,-6.57l-0.22,-1c-3.33,-14.61 -6.33,-29.68 -3.89,-44.46c0.9,-5.44 2.54,-10.84 2.34,-16.36a30,30 0 0 0 -1.88,-9.1c-2.92,-8.18 -8.54,-15.69 -11.74,-23.93a0.71,0.71 0 0 1 -0.08,-0.18c-1.68,-4.36 -2.51,-9.81 0.6,-13.31c1.6,-1.81 4,-2.72 6,-4c6.22,-4.05 9,-11.74 10.15,-19.08a64.88,64.88 0 0 0 0.78,-10c8.43,-3 19.68,-7.32 20.92,-6.64c1.75,0.94 19.29,-0.69 20,-0.76c5.34,-3.08 10,-7.61 12.28,-14.24c0.21,-0.59 0.39,-1.2 0.56,-1.84a51.47,51.47 0 1 1 75.91,-45.31l-0.01,-0.05z" id="svg_100" opacity="0.1"/>
  <path d="m524.649999,269.109998c-2.36,8.82 -7.73,18.91 -2.17,26.15c3.87,5 12.19,6.77 13.3,13c0.89,5 -3.52,9.12 -5.3,13.82c-4.24,11.23 6.82,22.27 8.5,34.16c1.83,12.9 -7.57,24.65 -9.44,37.54c-1.73,11.88 2.63,25.61 -4.85,35a5.18,5.18 0 0 1 -3.27,2.21c-4.79,0.51 -4,-8.1 -7.83,-11c0.41,5 0.8,10.22 -1,14.9s-6.54,8.65 -11.5,7.87l-1.71,-11.24a32.39,32.39 0 0 1 -11.9,7.45a86.8,86.8 0 0 1 12.41,-33.59c-12.59,6.06 -19.92,19.18 -26.47,31.51c-4.09,7.71 -8.31,16.14 -6.89,24.75c0.58,3.51 2.09,6.84 2.42,10.38s-0.95,7.65 -4.24,9c-3,1.25 -6.63,-0.41 -8.65,-3s-2.8,-5.89 -3.53,-9.08c-3.42,-14.92 -6.61,-30.32 -4.12,-45.42c0.9,-5.45 2.54,-10.85 2.34,-16.36c-0.43,-12.07 -9.34,-22 -13.68,-33.23c-1.69,-4.37 -2.51,-9.81 0.6,-13.31c1.6,-1.81 4,-2.72 6,-4c6.21,-4.06 9,-11.74 10.14,-19.08a66.12,66.12 0 0 0 -0.67,-23.88c-2.51,-11.75 -8.27,-23.23 -6.84,-35.16c1.4,-11.74 9.44,-21.42 14.85,-31.93a75.54,75.54 0 0 0 7.66,-44.15c-0.93,-7.05 -2.56,-15.21 2.22,-20.48c5.74,-6.32 16.85,-3.94 23.4,-9.42c3.2,-2.67 4.75,-6.78 7.12,-10.2a25,25 0 0 1 26.71,-9.54c4.5,1.29 8.54,3.85 13,5.3c6.28,2 13,1.78 19.6,2.57s13.51,3 17.29,8.41c2,2.88 2.91,6.39 4.75,9.37c3.95,6.4 11.48,9.48 17.18,14.39a33.34,33.34 0 0 1 9.38,35.61c-3.4,9.47 -11.27,17.85 -10.6,27.89c0.27,4.13 2,8.18 1.46,12.27c-1.58,11.39 -18.11,13.66 -23.82,23.64c0.46,-16.36 -2.68,-33.21 -11.61,-46.92c-7.14,-11 -28.85,-30.2 -43.77,-24.85a10.61,10.61 0 0 0 -6.52,7c-1.48,5.61 2.85,8 5.63,12.43a37.8,37.8 0 0 1 4.42,29.22z" fill="#3f3d56" id="svg_101"/>
  <g id="svg_102" opacity="0.2">
   <path d="m499.65,401.62a65.55,65.55 0 0 0 -1.43,-15.3c-2.13,-10 -6.59,-19.79 -7,-29.83c-0.58,11.18 4.65,22 7,33a65.65,65.65 0 0 1 1.43,12.13z" id="svg_103" transform="translate(-45.11 -75.83)"/>
   <path d="m542.25,482.77c0.87,-1.59 1.77,-3.17 2.74,-4.71c-12.58,6.06 -19.92,19.18 -26.47,31.52c-3.79,7.13 -7.68,14.89 -7.1,22.83c0.48,-6.81 3.83,-13.45 7.1,-19.62c6.06,-11.41 12.8,-23.47 23.73,-30.02z" id="svg_104" transform="translate(-45.11 -75.83)"/>
   <path d="m514,547.44c-0.38,2.7 -1.72,5.26 -4.18,6.27c-3,1.24 -6.63,-0.41 -8.64,-3s-2.81,-5.88 -3.54,-9.08c-2.44,-10.66 -4.76,-21.58 -5,-32.45c-0.24,11.93 2.3,23.95 5,35.67c0.73,3.19 1.52,6.5 3.54,9.08s5.61,4.24 8.64,3c3.29,-1.35 4.58,-5.46 4.25,-9c-0.07,-0.17 -0.07,-0.33 -0.07,-0.49z" id="svg_105" transform="translate(-45.11 -75.83)"/>
   <path d="m570.92,334.2a36.29,36.29 0 0 1 -1.16,7.6c-1.74,6.53 -5.14,13.77 -4.53,20c0.48,-5.44 3.08,-11.36 4.53,-16.81a36.14,36.14 0 0 0 1.16,-10.79z" id="svg_106" transform="translate(-45.11 -75.83)"/>
   <path d="m514.51,286.48a75.05,75.05 0 0 0 -0.62,-11.41c-0.37,-2.78 -0.84,-5.74 -1,-8.63c-0.23,3.85 0.47,8 1,11.85a74.85,74.85 0 0 1 0.62,8.19z" id="svg_107" transform="translate(-45.11 -75.83)"/>
   <path d="m580.9,384.19c0,-0.09 0,-0.16 -0.07,-0.25c-0.76,3.72 -3.82,7.12 -5.23,10.86a15.23,15.23 0 0 0 -0.88,7a14.38,14.38 0 0 1 0.88,-3.78c1.77,-4.71 6.18,-8.87 5.3,-13.83z" id="svg_108" transform="translate(-45.11 -75.83)"/>
   <path d="m495.86,479.85c-0.44,-12.07 -9.34,-22 -13.69,-33.23a22.78,22.78 0 0 1 -1.4,-5.5a18.58,18.58 0 0 0 1.4,8.72c4.28,11.08 12.94,20.83 13.64,32.63c0.05,-0.87 0.08,-1.75 0.05,-2.62z" id="svg_109" transform="translate(-45.11 -75.83)"/>
   <path d="m610,318c-7.15,-11 -28.85,-30.2 -43.77,-24.85a10.62,10.62 0 0 0 -6.53,7a7.57,7.57 0 0 0 -0.11,3.76c0,-0.18 0.06,-0.36 0.11,-0.54a10.6,10.6 0 0 1 6.53,-7c14.92,-5.35 36.62,13.88 43.77,24.85c8.08,12.42 11.41,27.41 11.63,42.28c0.21,-15.95 -2.98,-32.22 -11.63,-45.5z" id="svg_110" transform="translate(-45.11 -75.83)"/>
   <path d="m645.4,341.25c-1.57,11.36 -18,13.65 -23.77,23.57c0,1.09 0,2.19 0,3.28c5.7,-10 22.24,-12.25 23.81,-23.64a13.57,13.57 0 0 0 0,-3.37a0.86,0.86 0 0 1 -0.04,0.16z" id="svg_111" transform="translate(-45.11 -75.83)"/>
   <path d="m654.54,301.08c-3.4,9.48 -11.27,17.85 -10.6,27.9c0,0.14 0,0.29 0,0.44c0.74,-8.85 7.47,-16.53 10.55,-25.12a31.48,31.48 0 0 0 1.75,-12.24a30.57,30.57 0 0 1 -1.7,9.02z" id="svg_112" transform="translate(-45.11 -75.83)"/>
   <path d="m569.8,501.49a5.2,5.2 0 0 1 -3.27,2.22c-4.79,0.51 -4,-8.1 -7.83,-11c0.1,1.14 0.19,2.29 0.25,3.44c3.56,3.08 2.9,11.27 7.58,10.77a5.15,5.15 0 0 0 3.27,-2.21c4.27,-5.36 4.68,-12.13 4.57,-19.16c-0.11,5.86 -0.96,11.45 -4.57,15.94z" id="svg_113" transform="translate(-45.11 -75.83)"/>
   <path d="m557.69,507.61c-1.82,4.69 -6.54,8.66 -11.51,7.87q-0.85,-5.61 -1.7,-11.24a32.62,32.62 0 0 1 -11.31,7.23c-0.22,1.14 -0.43,2.29 -0.6,3.44a32.42,32.42 0 0 0 11.91,-7.45q0.85,5.63 1.7,11.24c5,0.78 9.69,-3.18 11.51,-7.87a25.62,25.62 0 0 0 1.31,-10.17a21.63,21.63 0 0 1 -1.31,6.95z" id="svg_114" transform="translate(-45.11 -75.83)"/>
   <path d="m574.65,466.49a57.13,57.13 0 0 0 -0.43,9.11a45.61,45.61 0 0 1 0.43,-5.89c1.79,-12.29 10.4,-23.54 9.62,-35.73c-0.69,11.02 -7.99,21.31 -9.62,32.51z" id="svg_115" transform="translate(-45.11 -75.83)"/>
  </g>
 </g>
</svg>