<?xml version="1.0" encoding="iso-8859-1"?>
<!-- Generator: Adobe Illustrator 17.1.0, SVG Export Plug-In . SVG Version: 6.00 Build 0)  -->
<!DOCTYPE svg PUBLIC "-//W3C//DTD SVG 1.1//EN" "http://www.w3.org/Graphics/SVG/1.1/DTD/svg11.dtd">
<svg version="1.1" id="Capa_1" xmlns="http://www.w3.org/2000/svg" xmlns:xlink="http://www.w3.org/1999/xlink" x="0px" y="0px"
	 viewBox="0 0 310.284 310.284" style="enable-background:new 0 0 310.284 310.284;" xml:space="preserve">
<path d="M155.142,0C69.597,0,0,69.597,0,155.142s69.597,155.142,155.142,155.142s155.142-69.597,155.142-155.142
	S240.688,0,155.142,0z M131.085,219.818c-9.06,8.525-20.407,12.785-34.041,12.785c-12.146,0-22.909-5.539-32.283-16.621
	c-9.164-10.438-13.744-21.735-13.744-33.882c0-35.597,24.538-70.001,73.619-103.218c1.746-1.182,6.129-2.222,8.693,0.626l4.731,5.95
	c2.288,3.869-0.483,7.457-2.277,8.945c-8.529,7.075-14.731,12.548-18.601,16.419c-7.589,7.981-13.199,15.97-16.903,23.935
	c-0.847,1.821,1.315,2.977,2.438,3.344c27.967,9.166,41.955,25.325,41.955,48.474C144.669,200.215,140.14,211.297,131.085,219.818z
	 M237.524,219.818c-9.06,8.525-20.407,12.785-34.041,12.785c-12.146,0-22.909-5.539-32.283-16.621
	c-9.164-10.438-13.744-21.735-13.744-33.882c0-35.597,24.538-70.001,73.619-103.218c1.746-1.182,6.129-2.222,8.693,0.626l4.731,5.95
	c2.288,3.869-0.483,7.457-2.277,8.945c-8.529,7.075-14.731,12.548-18.601,16.419c-7.589,7.981-13.199,15.97-16.903,23.935
	c-0.847,1.821,1.315,2.977,2.438,3.344c27.967,9.166,41.955,25.325,41.955,48.474C251.108,200.215,246.579,211.297,237.524,219.818z
	"/>
<g>
</g>
<g>
</g>
<g>
</g>
<g>
</g>
<g>
</g>
<g>
</g>
<g>
</g>
<g>
</g>
<g>
</g>
<g>
</g>
<g>
</g>
<g>
</g>
<g>
</g>
<g>
</g>
<g>
</g>
</svg>
