<?xml version="1.0" standalone="no"?>
<!DOCTYPE svg PUBLIC "-//W3C//DTD SVG 20010904//EN"
 "http://www.w3.org/TR/2001/REC-SVG-20010904/DTD/svg10.dtd">
<svg version="1.0" xmlns="http://www.w3.org/2000/svg"
 width="220.000000pt" height="220.000000pt" viewBox="0 0 220.000000 220.000000"
 preserveAspectRatio="xMidYMid meet">
<metadata>
Created by potrace 1.11, written by Peter Selinger 2001-2013
</metadata>
<g transform="translate(0.000000,220.000000) scale(0.100000,-0.100000)"
fill="#000000" stroke="none">
<path d="M1005 2144 c-458 -49 -780 -154 -855 -277 -39 -63 -17 -142 58 -209
36 -32 38 -37 24 -54 -32 -42 -95 -190 -119 -282 -36 -134 -38 -353 -5 -485
76 -307 268 -546 547 -682 169 -83 245 -100 450 -100 205 0 281 17 450 100
279 136 471 376 547 682 17 68 22 119 22 228 1 150 -14 241 -60 363 l-23 62
24 0 c65 0 117 54 109 114 -5 46 -54 86 -107 87 -41 1 -70 4 -132 14 -19 3
-48 22 -74 49 l-43 43 33 46 c44 63 51 137 17 187 -33 49 -131 96 -242 115
-112 19 -438 18 -621 -1z m-545 -278 c0 -2 -8 -10 -17 -17 -16 -13 -17 -12 -4
4 13 16 21 21 21 13z"/>
</g>
</svg>
