<?xml version="1.0" standalone="no"?>
<!DOCTYPE svg PUBLIC "-//W3C//DTD SVG 20010904//EN"
 "http://www.w3.org/TR/2001/REC-SVG-20010904/DTD/svg10.dtd">
<svg version="1.0" xmlns="http://www.w3.org/2000/svg"
 width="350.000000pt" height="350.000000pt" viewBox="0 0 350.000000 350.000000"
 preserveAspectRatio="xMidYMid meet">
<metadata>
Created by potrace 1.11, written by Peter Selinger 2001-2013
</metadata>
<g transform="translate(0.000000,350.000000) scale(0.100000,-0.100000)"
fill="#000000" stroke="none">
<path d="M1499 3476 c-2 -2 -33 -7 -69 -10 -36 -4 -72 -9 -80 -11 -8 -2 -26
-6 -40 -9 -54 -9 -154 -38 -231 -67 -220 -80 -399 -197 -569 -370 -96 -98 -95
-96 -154 -181 -152 -221 -226 -472 -230 -783 -2 -99 1 -139 20 -270 18 -129
86 -320 156 -440 75 -127 209 -288 309 -370 232 -191 455 -293 764 -349 114
-21 306 -26 403 -11 65 10 75 10 79 -4 19 -53 87 -187 121 -238 46 -67 149
-178 202 -215 58 -42 126 -76 187 -95 84 -24 78 -24 199 -30 275 -14 491 93
638 316 60 91 91 160 120 270 32 120 39 194 40 416 l1 180 -26 2 c-26 2 -26 0
-32 -72 -8 -93 -41 -181 -90 -239 -41 -49 -152 -110 -222 -122 -141 -22 -320
3 -438 63 l-29 14 89 61 c48 34 140 114 203 177 222 223 349 457 396 730 16
94 22 328 11 386 -4 17 -9 50 -12 75 -11 82 -55 233 -96 325 -34 78 -136 249
-158 265 -4 3 -14 15 -23 28 -19 28 -111 125 -164 172 -202 182 -484 325 -739
374 -44 9 -93 18 -110 22 -33 7 -420 16 -426 10z m319 -90 c148 -54 216 -162
288 -451 56 -230 74 -436 74 -870 0 -328 -15 -566 -46 -740 -2 -10 -6 -37 -9
-58 -9 -58 -44 -190 -53 -199 -5 -5 -45 16 -89 46 -100 69 -182 97 -293 102
-98 4 -161 -11 -220 -53 -53 -38 -111 -121 -136 -194 -15 -47 -23 -58 -31 -47
-13 15 -49 121 -64 188 -16 69 -19 82 -24 130 -3 25 -8 54 -10 65 -2 11 -7 52
-10 90 -4 39 -8 86 -10 105 -25 217 -25 953 -1 1088 2 9 7 49 10 87 4 39 10
84 12 100 3 17 7 41 9 55 2 14 10 57 19 95 78 337 221 487 456 480 47 -2 104
-10 128 -19z m-161 -2357 c19 -12 52 -48 73 -80 40 -61 96 -218 87 -242 -8
-22 -90 -40 -169 -36 -90 5 -162 38 -231 104 -66 65 -68 72 -47 134 24 71 48
102 99 128 55 28 135 24 188 -8z"/>
</g>
</svg>
